<?xml version="1.0" encoding="UTF-8"?>
<svg id="Layer_2" data-name="Layer 2" xmlns="http://www.w3.org/2000/svg" viewBox="0 0 2303.74 2573.4">
  <defs>
    <style>
      .cls-1 {
        fill: #fff;
      }
    </style>
  </defs>
  <g id="Artwork">
    <g>
      <g>
        <rect x="553.77" y="672.79" width="1211.47" height="1211.47" rx="294.86" ry="294.86"/>
        <g>
          <rect x="1133.03" y="203.96" width="52.94" height="569.55"/>
          <path d="M1159.5,0C1100.93,0,1053.45,47.48,1053.45,106.05s47.48,106.05,106.05,106.05,106.05-47.48,106.05-106.05S1218.07,0,1159.5,0ZM1159.5,154.92c-26.99,0-48.87-21.88-48.87-48.87s21.88-48.87,48.87-48.87,48.87,21.88,48.87,48.87-21.88,48.87-48.87,48.87Z"/>
        </g>
        <g>
          <rect x="1133.03" y="1799.9" width="52.94" height="569.55"/>
          <path d="M1159.5,2361.3c-58.57,0-106.05,47.48-106.05,106.05s47.48,106.05,106.05,106.05,106.05-47.48,106.05-106.05-47.48-106.05-106.05-106.05ZM1159.5,2516.22c-26.99,0-48.87-21.88-48.87-48.87s21.88-48.87,48.87-48.87,48.87,21.88,48.87,48.87-21.88,48.87-48.87,48.87Z"/>
        </g>
        <g>
          <rect x="278.24" y="933.84" width="339.65" height="52.94"/>
          <path d="M180.34,854.26c-58.57,0-106.05,47.48-106.05,106.05s47.48,106.05,106.05,106.05,106.05-47.48,106.05-106.05-47.48-106.05-106.05-106.05ZM180.34,1009.18c-26.99,0-48.87-21.88-48.87-48.87s21.88-48.87,48.87-48.87,48.87,21.88,48.87,48.87-21.88,48.87-48.87,48.87Z"/>
        </g>
        <g>
          <rect x="203.96" y="1559.6" width="413.94" height="52.94"/>
          <path d="M106.05,1480.02c-58.57,0-106.05,47.48-106.05,106.05s47.48,106.05,106.05,106.05,106.05-47.48,106.05-106.05-47.48-106.05-106.05-106.05ZM106.05,1634.93c-26.99,0-48.87-21.88-48.87-48.87s21.88-48.87,48.87-48.87,48.87,21.88,48.87,48.87-21.88,48.87-48.87,48.87Z"/>
        </g>
        <g>
          <rect x="1690.87" y="1573.85" width="304.84" height="52.94"/>
          <path d="M2093.62,1494.27c-58.57,0-106.05,47.48-106.05,106.05s47.48,106.05,106.05,106.05,106.05-47.48,106.05-106.05-47.48-106.05-106.05-106.05ZM2093.62,1649.18c-26.99,0-48.87-21.88-48.87-48.87s21.88-48.87,48.87-48.87,48.87,21.88,48.87,48.87-21.88,48.87-48.87,48.87Z"/>
        </g>
        <g>
          <rect x="1441.13" y="1819.8" width="52.94" height="366.68"/>
          <path d="M1467.6,2178.33c-58.57,0-106.05,47.48-106.05,106.05s47.48,106.05,106.05,106.05,106.05-47.48,106.05-106.05-47.48-106.05-106.05-106.05ZM1467.6,2333.25c-26.99,0-48.87-21.88-48.87-48.87s21.88-48.87,48.87-48.87,48.87,21.88,48.87,48.87-21.88,48.87-48.87,48.87Z"/>
        </g>
        <g>
          <rect x="362.89" y="1252.06" width="245.48" height="52.94"/>
          <path d="M264.98,1172.48c-58.57,0-106.05,47.48-106.05,106.05s47.48,106.05,106.05,106.05,106.05-47.48,106.05-106.05-47.48-106.05-106.05-106.05ZM264.98,1327.4c-26.99,0-48.87-21.88-48.87-48.87s21.88-48.87,48.87-48.87,48.87,21.88,48.87,48.87-21.88,48.87-48.87,48.87Z"/>
        </g>
        <g>
          <rect x="1457.83" y="519.54" width="52.94" height="245.48"/>
          <path d="M1484.3,315.58c-58.57,0-106.05,47.48-106.05,106.05s47.48,106.05,106.05,106.05,106.05-47.48,106.05-106.05-47.48-106.05-106.05-106.05ZM1484.3,470.5c-26.99,0-48.87-21.88-48.87-48.87s21.88-48.87,48.87-48.87,48.87,21.88,48.87,48.87-21.88,48.87-48.87,48.87Z"/>
        </g>
        <g>
          <rect x="1682.72" y="1252.06" width="245.48" height="52.94"/>
          <path d="M2026.11,1172.48c-58.57,0-106.05,47.48-106.05,106.05s47.48,106.05,106.05,106.05,106.05-47.48,106.05-106.05-47.48-106.05-106.05-106.05ZM2026.11,1327.39c-26.99,0-48.87-21.88-48.87-48.87s21.88-48.87,48.87-48.87,48.87,21.88,48.87,48.87-21.88,48.87-48.87,48.87Z"/>
        </g>
        <g>
          <rect x="1739.25" y="943.15" width="360.54" height="52.94"/>
          <path d="M2197.69,863.57c-58.57,0-106.05,47.48-106.05,106.05s47.48,106.05,106.05,106.05,106.05-47.48,106.05-106.05-47.48-106.05-106.05-106.05ZM2197.69,1018.49c-26.99,0-48.87-21.88-48.87-48.87s21.88-48.87,48.87-48.87,48.87,21.88,48.87,48.87-21.88,48.87-48.87,48.87Z"/>
        </g>
        <g>
          <rect x="808.02" y="380.05" width="52.94" height="360.54"/>
          <path d="M834.49,176.09c-58.57,0-106.05,47.48-106.05,106.05s47.48,106.05,106.05,106.05,106.05-47.48,106.05-106.05-47.48-106.05-106.05-106.05ZM834.49,331.01c-26.99,0-48.87-21.88-48.87-48.87s21.88-48.87,48.87-48.87,48.87,21.88,48.87,48.87-21.88,48.87-48.87,48.87Z"/>
        </g>
        <g>
          <rect x="824.31" y="1829.78" width="52.94" height="227.42"/>
          <path d="M850.78,2049.06c-58.57,0-106.05,47.48-106.05,106.05s47.48,106.05,106.05,106.05,106.05-47.48,106.05-106.05-47.48-106.05-106.05-106.05ZM850.78,2203.97c-26.99,0-48.87-21.88-48.87-48.87s21.88-48.87,48.87-48.87,48.87,21.88,48.87,48.87-21.88,48.87-48.87,48.87Z"/>
        </g>
      </g>
      <g>
        <path class="cls-1" d="M1237.97,1408.43l-146.47-350.69c-5.97-14.29-20.94-23.73-37.65-23.73h0c-16.71,0-31.68,9.44-37.65,23.73l-146.47,350.69c-10.09,24.16,9.4,50.09,37.65,50.09h6.91c17.12,0,32.38-9.91,38.04-24.7l29.59-77.31h143.84l29.59,77.31c5.66,14.8,20.92,24.7,38.04,24.7h6.91c28.26,0,47.74-25.93,37.65-50.09ZM1014.63,1271.07l34.43-89.95c1.68-4.39,7.9-4.39,9.58,0l34.43,89.95c1.54,4.03-1.43,8.36-5.75,8.36h-66.94c-4.32,0-7.29-4.33-5.75-8.36Z"/>
        <path class="cls-1" d="M1366.32,1458.52h0c-25.01,0-45.28-18.56-45.28-41.46v-341.59c0-22.9,20.27-41.46,45.28-41.46h0c25.01,0,45.28,18.56,45.28,41.46v341.59c0,22.9-20.27,41.46-45.28,41.46Z"/>
      </g>
    </g>
  </g>
</svg>