<?xml version="1.0" encoding="UTF-8"?>
<svg id="Layer_2" data-name="Layer 2" xmlns="http://www.w3.org/2000/svg" viewBox="0 0 1668.04 1080.39">
  <defs>
    <style>
      .cls-1 {
        fill: #fff;
      }

      .cls-2 {
        fill: #f2f2f2;
      }

      .cls-3 {
        fill: #ccc;
      }

      .cls-4 {
        fill: #b3b3b3;
      }

      .cls-5 {
        fill: #e6e6e6;
      }
    </style>
  </defs>
  <g id="Layer_1-2" data-name="Layer 1">
    <g>
      <rect class="cls-2" x="0" y="266.79" width="1668.04" height="430.34" rx="215.17" ry="215.17"/>
      <path class="cls-2" d="M715.8,939.73h812.63c38.82,0,70.33,31.51,70.33,70.33h0c0,38.82-31.51,70.33-70.33,70.33h-812.63c-38.82,0-70.33-31.51-70.33-70.33h0c0-38.82,31.51-70.33,70.33-70.33Z"/>
      <rect class="cls-2" x="317.04" y="939.73" width="264.43" height="140.66" rx="70.33" ry="70.33"/>
      <rect class="cls-2" x="504.81" y="0" width="659.59" height="103.75" rx="51.87" ry="51.87" transform="translate(1669.2 103.75) rotate(180)"/>
      <rect class="cls-2" x="1264.07" y="0" width="157.22" height="103.75" rx="51.87" ry="51.87" transform="translate(2685.36 103.75) rotate(180)"/>
      <rect class="cls-2" x="223.91" y="550.6" width="1295.82" height="288.03" rx="144.02" ry="144.02"/>
      <rect class="cls-2" x="209.24" y="163.12" width="1166.74" height="199.36" rx="99.68" ry="99.68"/>
      <g>
        <path class="cls-5" d="M238.07,512.15c-9.77,2.93-15.69,12.88-13.82,22.9,3.38,18.15,8.58,35.74,15.43,52.54,3.84,9.42,14.2,14.58,23.98,11.77,21.98-6.3,46.58.66,61.81,19.59,15.24,18.92,16.79,44.43,5.95,64.56-4.83,8.96-2,20.17,6.39,25.94,14.96,10.27,31.03,19.11,48.05,26.29,9.39,3.96,20.38.3,25.32-8.62,11.08-20,33.4-32.47,57.55-29.87,24.17,2.61,43.3,19.55,49.86,41.45,2.93,9.77,12.88,15.69,22.9,13.83,18.15-3.38,35.74-8.58,52.55-15.43,9.42-3.84,14.58-14.2,11.77-23.98-6.3-21.98.66-46.57,19.58-61.81,18.93-15.24,44.44-16.79,64.56-5.95,8.96,4.82,20.17,2,25.93-6.39,10.27-14.95,19.11-31.03,26.29-48.04,3.96-9.39.3-20.38-8.62-25.33-20-11.08-32.48-33.39-29.87-57.56,2.61-24.16,19.55-43.3,41.46-49.86,9.77-2.93,15.69-12.88,13.82-22.9-3.38-18.16-8.59-35.74-15.44-52.55-3.84-9.42-14.2-14.57-23.98-11.77-21.98,6.3-46.57-.66-61.81-19.59-15.24-18.92-16.79-44.43-5.95-64.56,4.83-8.96,2-20.17-6.39-25.94-14.96-10.27-31.03-19.11-48.05-26.28-9.39-3.96-20.38-.29-25.32,8.62-11.08,20-33.39,32.47-57.55,29.87-24.16-2.61-43.3-19.55-49.86-41.46-2.93-9.77-12.88-15.69-22.9-13.82-18.16,3.38-35.75,8.58-52.55,15.43-9.42,3.84-14.58,14.2-11.77,23.98,6.3,21.98-.66,46.57-19.58,61.81-18.92,15.24-44.43,16.79-64.56,5.95-8.96-4.83-20.18-2-25.94,6.39-10.27,14.95-19.11,31.03-26.28,48.05-3.96,9.39-.3,20.38,8.62,25.32,20,11.08,32.47,33.39,29.87,57.55-2.61,24.16-19.55,43.3-41.45,49.87ZM425.77,403.39c23.41-18.85,52.44-26.01,80.04-22.25,25.64,3.5,50.05,16.42,67.57,38.17,2.39,2.96,4.58,6.01,6.59,9.14,28.68,44.56,19.69,104.49-22.51,138.47-42.2,33.98-102.66,29.99-140.09-7.54-2.62-2.63-5.14-5.42-7.52-8.39-36.37-45.16-29.24-111.25,15.92-147.61Z"/>
        <path class="cls-5" d="M713.53,271.46c-5.39,3.56-7.17,10.68-4.2,16.42,5.37,10.4,11.74,20.12,18.96,29.06,4.05,5.02,11.28,6.25,16.7,2.76,12.18-7.84,28.38-8.11,41.08.59,12.7,8.69,18.31,23.89,15.4,38.08-1.29,6.32,2.47,12.6,8.61,14.57,10.95,3.5,22.32,5.93,33.95,7.17,6.42.69,12.42-3.54,13.79-9.86,3.07-14.16,14.33-25.8,29.46-28.63,15.14-2.83,29.84,3.95,37.82,16.04,3.56,5.39,10.68,7.17,16.42,4.2,10.4-5.37,20.12-11.74,29.06-18.96,5.01-4.05,6.25-11.28,2.76-16.7-7.84-12.18-8.11-28.38.59-41.07,8.7-12.7,23.89-18.31,38.08-15.41,6.32,1.29,12.6-2.47,14.57-8.61,3.5-10.95,5.93-22.32,7.17-33.95.69-6.42-3.54-12.42-9.86-13.79-14.16-3.07-25.8-14.33-28.64-29.46-2.83-15.13,3.95-29.84,16.04-37.82,5.39-3.56,7.17-10.68,4.2-16.42-5.37-10.4-11.74-20.12-18.96-29.06-4.05-5.01-11.27-6.25-16.7-2.76-12.18,7.84-28.37,8.11-41.08-.59-12.7-8.7-18.3-23.89-15.4-38.08,1.29-6.32-2.47-12.6-8.61-14.57-10.95-3.5-22.32-5.93-33.95-7.17-6.42-.69-12.42,3.54-13.79,9.86-3.07,14.16-14.32,25.8-29.46,28.63-15.13,2.83-29.84-3.95-37.82-16.04-3.56-5.39-10.68-7.17-16.42-4.2-10.4,5.37-20.12,11.74-29.06,18.96-5.01,4.05-6.25,11.28-2.76,16.7,7.84,12.18,8.11,28.37-.59,41.07-8.69,12.7-23.89,18.3-38.08,15.4-6.32-1.29-12.61,2.47-14.57,8.61-3.5,10.95-5.92,22.32-7.17,33.95-.69,6.42,3.54,12.42,9.86,13.79,14.16,3.07,25.8,14.33,28.63,29.46,2.83,15.14-3.95,29.84-16.04,37.82ZM807.54,171.19c20.75-30.31,62.15-38.06,92.46-17.3,1.99,1.36,3.88,2.81,5.67,4.34,25.54,21.8,31.03,59.8,11.64,88.12-19.39,28.32-56.8,36.95-86.36,21.02-2.07-1.11-4.11-2.35-6.1-3.71-30.31-20.75-38.06-62.15-17.3-92.46Z"/>
        <g id="line">
          <path class="cls-4" d="M537.72,763.15c-13.18,0-25.09-8.53-28.97-21.5-5.59-18.67-21.73-32.09-41.12-34.18-19.38-2.1-38.01,7.58-47.46,24.63-7.49,13.52-23.96,19.16-38.31,13.11-17.45-7.36-34.23-16.54-49.87-27.28-12.81-8.8-16.94-25.68-9.62-39.28,9.25-17.16,7.32-38.06-4.91-53.24-12.22-15.18-32.23-21.52-50.98-16.15-14.85,4.25-30.46-3.39-36.33-17.78-7.16-17.57-12.55-35.92-16.02-54.54-2.85-15.3,6.17-30.19,20.98-34.63h0c18.67-5.6,32.09-21.74,34.18-41.12,2.09-19.38-7.58-38.01-24.63-47.46-13.52-7.49-19.16-23.96-13.11-38.31,7.36-17.46,16.54-34.24,27.28-49.87,8.8-12.81,25.69-16.94,39.29-9.62,17.16,9.24,38.06,7.32,53.24-4.91,15.18-12.23,21.52-32.23,16.15-50.97-4.26-14.85,3.38-30.46,17.77-36.33,17.58-7.16,35.93-12.55,54.55-16.02,15.3-2.85,30.19,6.17,34.63,20.98,5.6,18.68,21.73,32.1,41.12,34.19,19.39,2.09,38.01-7.58,47.46-24.63,7.49-13.52,23.96-19.16,38.31-13.11,17.45,7.36,34.23,16.54,49.87,27.28,12.81,8.8,16.94,25.69,9.62,39.28-9.24,17.16-7.32,38.06,4.91,53.24,12.23,15.18,32.24,21.52,50.97,16.15,14.84-4.26,30.46,3.38,36.32,17.77,7.16,17.57,12.55,35.92,16.02,54.54,2.85,15.31-6.17,30.19-20.98,34.63-18.68,5.6-32.1,21.73-34.19,41.12-2.09,19.38,7.58,38.02,24.63,47.47,13.52,7.49,19.16,23.96,13.11,38.31-7.36,17.45-16.54,34.23-27.29,49.87-8.8,12.8-25.68,16.94-39.28,9.62-17.16-9.24-38.06-7.32-53.24,4.91-15.18,12.22-21.52,32.23-16.15,50.97,4.26,14.85-3.38,30.46-17.77,36.33-17.57,7.16-35.92,12.55-54.54,16.02-1.9.35-3.79.52-5.65.52ZM462.37,686.62c2.47,0,4.96.13,7.46.4,27.63,2.98,50.63,22.1,58.6,48.72,1.39,4.65,6.3,7.58,11.18,6.67,17.25-3.21,34.26-8.21,50.55-14.85,4.57-1.86,7.11-6.97,5.77-11.63-7.66-26.71,1.38-55.23,23.02-72.65,21.64-17.42,51.43-20.17,75.88-7,4.27,2.3,9.79.91,12.59-3.16,9.96-14.49,18.47-30.04,25.29-46.22,1.93-4.57.11-9.99-4.13-12.34-24.31-13.47-38.09-40.02-35.11-67.65,2.98-27.62,22.11-50.63,48.73-58.6,4.65-1.39,7.58-6.3,6.67-11.18-3.21-17.25-8.21-34.26-14.85-50.55-1.86-4.57-6.97-7.1-11.63-5.77-6.3,1.81-12.71,2.68-19.05,2.68-20.5,0-40.28-9.17-53.6-25.7-17.42-21.64-20.17-51.42-6.99-75.88,2.3-4.26.91-9.8-3.16-12.59-14.5-9.96-30.05-18.47-46.22-25.28-4.57-1.93-9.99-.11-12.34,4.13-13.47,24.3-40.02,38.08-67.65,35.1-27.63-2.98-50.63-22.11-58.6-48.73-1.39-4.65-6.3-7.57-11.18-6.67-17.25,3.21-34.26,8.21-50.55,14.85-4.57,1.86-7.11,6.97-5.77,11.63,7.66,26.71-1.38,55.22-23.02,72.64-21.63,17.42-51.42,20.17-75.88,6.99-4.27-2.3-9.8-.91-12.6,3.16-9.96,14.49-18.46,30.04-25.29,46.22-1.93,4.57-.11,9.99,4.13,12.34,24.3,13.47,38.08,40.02,35.1,67.65-2.98,27.63-22.11,50.63-48.72,58.61-4.65,1.39-7.58,6.3-6.67,11.18,3.21,17.26,8.21,34.26,14.84,50.54,1.86,4.57,6.98,7.11,11.63,5.77,26.71-7.65,55.23,1.38,72.65,23.02,17.43,21.63,20.17,51.42,6.99,75.88-2.3,4.27-.91,9.79,3.16,12.59,14.5,9.96,30.05,18.47,46.22,25.29,4.57,1.93,9.99.11,12.34-4.13,12.25-22.11,35.33-35.51,60.19-35.51ZM491.68,600.42c-2.21,0-4.42-.06-6.64-.19-28.35-1.63-54.97-13.56-74.94-33.59-2.88-2.88-5.66-5.98-8.25-9.2-19.31-23.98-28.13-54.04-24.83-84.65,3.3-30.61,18.33-58.1,42.31-77.41,24.94-20.08,56.15-28.75,87.88-24.42,5.62.77,9.56,5.95,8.79,11.57-.77,5.62-5.94,9.57-11.57,8.79-26.07-3.56-51.72,3.57-72.21,20.07-19.71,15.87-32.05,38.45-34.77,63.6-2.71,25.15,4.53,49.85,20.4,69.56,2.13,2.65,4.42,5.2,6.79,7.57,18.4,18.45,42.61,27.82,66.93,27.83,20.93,0,41.95-6.94,59.44-21.03,37.81-30.45,46.55-84.14,20.32-124.9-1.82-2.84-3.81-5.61-5.95-8.25-3.56-4.42-2.87-10.89,1.54-14.45,4.42-3.56,10.89-2.87,14.45,1.54,2.6,3.22,5.04,6.6,7.25,10.05,15.3,23.77,21.27,52.31,16.82,80.36-4.49,28.25-19.24,53.7-41.54,71.66-20.57,16.56-45.99,25.49-72.22,25.49Z"/>
        </g>
        <g id="line-2" data-name="line">
          <path class="cls-4" d="M845.44,390.46c-.83,0-1.66-.04-2.5-.13-12.18-1.3-24.29-3.86-35.99-7.6-11.21-3.59-17.9-14.94-15.55-26.42,2.17-10.61-2.2-21.42-11.14-27.54-4.68-3.21-5.88-9.6-2.68-14.29,3.21-4.68,9.6-5.88,14.29-2.68,15.78,10.8,23.5,29.88,19.67,48.62-.23,1.15.5,2.35,1.67,2.72,10.37,3.32,21.11,5.58,31.91,6.74,1.24.13,2.4-.67,2.65-1.82,4.05-18.69,18.82-33.04,37.61-36.56,18.79-3.52,37.75,4.52,48.29,20.48.65.98,2.02,1.3,3.13.73,9.65-4.98,18.84-10.98,27.32-17.82.96-.77,1.21-2.15.58-3.14-10.35-16.08-10.05-36.67.75-52.44,10.8-15.78,29.89-23.49,48.62-19.67,1.15.24,2.34-.5,2.72-1.67,3.32-10.37,5.58-21.11,6.74-31.91.13-1.24-.66-2.4-1.82-2.65-18.69-4.05-33.04-18.82-36.56-37.62-3.52-18.8,4.52-37.75,20.48-48.29.98-.65,1.3-2.02.73-3.13-4.99-9.66-10.98-18.85-17.83-27.32-.77-.96-2.15-1.21-3.14-.58-16.08,10.34-36.66,10.05-52.44-.75-15.78-10.8-23.5-29.89-19.67-48.62.23-1.15-.5-2.34-1.67-2.72-10.37-3.32-21.11-5.58-31.91-6.74-1.24-.14-2.4.67-2.65,1.82-4.05,18.69-18.82,33.04-37.61,36.56-18.8,3.52-37.75-4.52-48.29-20.48-.65-.98-2.02-1.3-3.13-.73-9.65,4.98-18.84,10.98-27.32,17.82-.96.77-1.21,2.15-.58,3.14,10.35,16.08,10.05,36.66-.75,52.44-10.8,15.78-29.88,23.5-48.62,19.67-1.15-.24-2.35.5-2.73,1.68-3.32,10.37-5.58,21.1-6.74,31.91-.13,1.24.66,2.4,1.81,2.65,18.69,4.05,33.04,18.82,36.56,37.61,3.52,18.8-4.52,37.75-20.48,48.29-.98.65-1.3,2.02-.73,3.13,2.6,5.04.63,11.24-4.42,13.85-5.05,2.6-11.24.63-13.85-4.42-5.41-10.48-2.11-23.25,7.67-29.71,9.04-5.97,13.59-16.71,11.6-27.36-1.99-10.65-10.12-19.01-20.71-21.31-11.46-2.48-19.15-13.2-17.9-24.93,1.3-12.19,3.86-24.3,7.6-35.99,3.59-11.21,14.94-17.9,26.42-15.55,10.61,2.17,21.42-2.2,27.54-11.14,6.12-8.94,6.29-20.6.43-29.71-6.34-9.85-4.21-22.86,4.95-30.25,9.56-7.72,19.92-14.48,30.81-20.1,10.48-5.41,23.25-2.11,29.71,7.67,5.97,9.04,16.71,13.59,27.35,11.6,10.65-1.99,19.01-10.12,21.31-20.71,2.49-11.46,13.22-19.15,24.93-17.9,12.18,1.3,24.29,3.86,35.99,7.6,11.21,3.59,17.9,14.94,15.55,26.42-2.17,10.61,2.2,21.42,11.14,27.54,8.94,6.12,20.6,6.29,29.71.43,9.85-6.34,22.85-4.21,30.25,4.95,7.72,9.55,14.48,19.91,20.1,30.8,5.41,10.48,2.11,23.25-7.67,29.71-9.04,5.97-13.6,16.71-11.6,27.35,1.99,10.65,10.12,19.01,20.71,21.31,11.46,2.49,19.15,13.2,17.9,24.93-1.3,12.18-3.86,24.29-7.6,35.99-3.58,11.21-14.94,17.9-26.41,15.55-10.61-2.17-21.42,2.2-27.54,11.14-6.12,8.94-6.29,20.6-.43,29.71,6.34,9.85,4.21,22.86-4.95,30.25-9.55,7.72-19.92,14.48-30.8,20.1-10.48,5.41-23.25,2.11-29.71-7.67-5.97-9.04-16.71-13.6-27.35-11.6-10.65,1.99-19.01,10.12-21.31,20.71-2.31,10.64-11.71,18.03-22.43,18.03ZM862.45,285.63c-12.33,0-24.82-2.98-36.39-9.22-2.38-1.28-4.75-2.72-7.03-4.28-16.93-11.59-28.33-29.07-32.1-49.24-3.77-20.16.53-40.59,12.12-57.51h0c23.92-34.93,71.81-43.89,106.75-19.98,2.27,1.55,4.48,3.24,6.55,5.02,29.89,25.51,35.67,69.25,13.43,101.73-14.81,21.62-38.76,33.48-63.33,33.48ZM816.02,177c-8.49,12.4-11.64,27.35-8.88,42.12,2.76,14.76,11.11,27.57,23.51,36.06,1.67,1.14,3.41,2.2,5.16,3.14,8.47,4.56,17.61,6.75,26.64,6.75,18,0,35.53-8.68,46.38-24.52,16.29-23.79,12.06-55.81-9.83-74.5-1.52-1.31-3.13-2.54-4.79-3.67-25.59-17.52-60.66-10.96-78.18,14.62h0Z"/>
        </g>
        <path class="cls-1" d="M644.61,404.64h54.74c52.29-111.93,165.85-189.5,297.55-189.5,158.59,0,290.92,112.47,321.56,262h66.98c108.94,0,197.25,88.31,197.25,197.25s-88.31,197.25-197.25,197.25h-740.83c-128.96,0-233.5-104.54-233.5-233.5s104.54-233.5,233.5-233.5Z"/>
        <g id="line-3" data-name="line">
          <path class="cls-4" d="M1385.44,881.93h-307.13c-5.68,0-10.28-4.6-10.28-10.28s4.6-10.28,10.28-10.28h307.13c103.1,0,186.98-83.88,186.98-186.98,0-76.84-48.18-147-119.88-174.58-21.39-8.23-43.96-12.4-67.1-12.4h-66.98c-4.88,0-9.09-3.43-10.07-8.21-30.14-147.05-161.14-253.79-311.5-253.79-123,0-236.14,72.06-288.24,183.57-1.69,3.62-5.32,5.93-9.31,5.93h-54.74c-123.09,0-223.23,100.14-223.23,223.23s100.14,223.23,223.23,223.23h320.67c5.68,0,10.28,4.6,10.28,10.28s-4.6,10.28-10.28,10.28h-320.67c-65.12,0-126.34-25.36-172.38-71.4-46.04-46.04-71.4-107.26-71.4-172.38s25.36-126.34,71.4-172.38c46.04-46.04,107.26-71.4,172.38-71.4h48.27c26.99-54.98,68.32-101.58,119.87-135.07,54.82-35.61,118.5-54.44,184.15-54.44,40,0,79.15,6.91,116.38,20.54,35.97,13.17,69.25,32.26,98.93,56.74,57.42,47.37,97.87,112.71,114.54,184.73h58.7c25.66,0,50.72,4.63,74.48,13.77,38.73,14.9,71.83,40.82,95.71,74.96,24.43,34.94,37.35,76.02,37.35,118.81,0,114.43-93.1,207.53-207.53,207.53Z"/>
        </g>
        <g>
          <g>
            <path class="cls-5" d="M802.28,590.55h551.39c33.44,0,60.56,27.11,60.56,60.56h0c0,33.44-27.11,60.56-60.56,60.56h-551.39v-121.11Z"/>
            <path class="cls-3" d="M812.79,590.55h52.1c8.62,18.39,13.43,38.91,13.43,60.56s-4.82,42.17-13.43,60.56h-52.1v-121.11Z"/>
            <path class="cls-5" d="M700.25,508.26c78.64,0,142.43,63.54,142.84,142.08.41,78.66-62.24,142.55-140.89,143.6-45.38.61-85.99-19.95-112.56-52.44-5.39-6.58-.65-16.47,7.85-16.47h96.75c32.04-44.07,32.04-103.77,0-147.84h0s-96.76,0-96.76,0c-8.5,0-13.24-9.88-7.86-16.46,26.19-32.03,66.02-52.47,110.62-52.47Z"/>
            <path class="cls-3" d="M1287.58,651.1h0c0,10.31-8.36,18.67-18.67,18.67h-310.95c-10.31,0-18.67-8.36-18.67-18.67h0c0-10.31,8.36-18.67,18.67-18.67h310.95c10.31,0,18.67,8.36,18.67,18.67Z"/>
          </g>
          <g id="line-4" data-name="line">
            <path class="cls-4" d="M692.47,804.23c-46.16,0-89.27-20.41-118.56-56.22-5.02-6.14-6.03-14.41-2.63-21.59,3.41-7.2,10.48-11.67,18.43-11.67h91.38c25.6-38.67,25.6-88.61,0-127.28h-91.38c-7.96,0-15.02-4.47-18.44-11.67-3.4-7.17-2.4-15.44,2.62-21.57,29.23-35.74,72.45-56.24,118.58-56.24,29.66,0,58.43,8.5,83.21,24.57,22.27,14.45,40.34,34.31,52.56,57.72h442.9c5.68,0,10.28,4.6,10.28,10.28s-4.6,10.28-10.28,10.28h-449.28c-3.99,0-7.61-2.3-9.31-5.92-21.75-46.4-68.89-76.37-120.1-76.37-39.79,0-77.09,17.63-102.4,48.37h96.39c3.29,0,6.38,1.58,8.31,4.23,34.78,47.83,34.78,112.09,0,159.92-.13.18-.27.36-.42.54-1.95,2.34-4.85,3.7-7.9,3.7h-96.39c25.77,31.29,63.74,48.94,104.21,48.36,51.36-.69,96.72-29.94,118.36-76.35,1.69-3.62,5.32-5.93,9.31-5.93h523.93c27.72,0,50.28-22.55,50.28-50.28s-22.55-50.28-50.28-50.28c-5.68,0-10.28-4.6-10.28-10.28s4.6-10.28,10.28-10.28c39.06,0,70.83,31.78,70.83,70.83s-31.78,70.83-70.83,70.83h-517.54c-12.03,23.13-29.78,42.81-51.65,57.2-24.35,16.02-52.75,24.69-82.14,25.08-.7,0-1.4.01-2.09.01Z"/>
            <path class="cls-4" d="M694.42,804.22c-5.61,0-10.2-4.51-10.27-10.14-.08-5.68,4.46-10.34,10.14-10.41,72.48-.97,131.13-60.75,130.75-133.27-.38-72.71-59.85-131.86-132.57-131.86-5.68,0-10.28-4.6-10.28-10.28s4.6-10.28,10.28-10.28c40.76,0,79.12,15.83,108.01,44.58,28.88,28.74,44.9,66.99,45.12,107.72.21,40.78-15.32,79.19-43.74,108.15-28.42,28.98-66.53,45.23-107.3,45.78-.05,0-.09,0-.14,0Z"/>
          </g>
        </g>
      </g>
    </g>
  </g>
</svg>